/* XPM */
static char *_07dae5d455f4482aaeb728aefd37f31JBfFRLzLSZLXUe8e[] = {
/* columns rows colors chars-per-pixel */
"32 32 17 1 ",
"  c None",
". c #763A34",
"X c #733E39",
"o c #A95E37",
"O c #CB7B1F",
"+ c #FFA300",
"@ c #FEAE34",
"# c #EBA35B",
"$ c #FFC773",
"% c #FFCB8E",
"& c #FFD494",
"* c #FFD0A2",
"= c #FFE9C8",
"- c #FFECCE",
"; c #FFF3E1",
": c #FFF4E4",
"> c white",
/* pixels */
"                                ",
"            oooooooo            ",
"          oo@@@@@$$$oo          ",
"        oo@@&&&&&&&&$$oo        ",
"       oOO@@@OOOOOO@--$$o       ",
"      oO@@@%%......OO@--$o      ",
"     oO@@@%..******..O@$-$o     ",
"    oO@@@%.##======**.O@$-$o    ",
"    oO@@%.#=======:==*.O@-$o    ",
"   oO@@%.#;========:>=*.O@-$o   ",
"   oO@%.#++;=========>=*.O-$o   ",
"   oO@%.#+++;========:=*.O&$o   ",
"  .O@%.#+++++;========:=*.O&$.  ",
"  .O@%.#++++++;=======:=*.O&$.  ",
"  .O@%.#+++++++;======:=*.O&$.  ",
"  .O@%.#++++++++;=======*.O&$.  ",
"  .O@%.#+++++++++;======*.O&@.  ",
"  .O@%.#++++++++++;=====*.O&@.  ",
"  XO@%.#+++++++++++;====*.O&@.  ",
"   .O@%.#+++++++++++;==*.O@O.   ",
"   .O@%.#++++++++++++;=*.O@O.   ",
"   .O@@%.#++++++++++++#.O@@O.   ",
"    .O@@%.#++++++++++#.O@@O.    ",
"    .O@@@%.##++++++##.O@@@O.    ",
"     .O@@@%..######..O@@@O.     ",
"      .O@@@%%......OO@@@O.      ",
"       .OO@@@%%%%%%@@@OO.       ",
"        ..OO@@@@@@@@OO..        ",
"          ..OOOOOOOO..          ",
"            ........            ",
"                                ",
"                                "
};
