/* XPM */
static char *d682653d87c147fd833defe7ceba6d47qPfcvri83hU3rwj3[] = {
/* columns rows colors chars-per-pixel */
"32 32 13 1 ",
"  c None",
". c #181425",
"X c #51312E",
"o c #6B3322",
"O c #2E2647",
"+ c #50466E",
"@ c #974C35",
"# c #B03152",
"$ c #CD7941",
"% c #C97D4C",
"& c #F1A26E",
"* c #FFCCAA",
"= c #FFF1E8",
/* pixels */
"                                ",
"                                ",
"       ..................       ",
"      .XXooooooooooo@@@@X.      ",
"     .XXXooooooooooooo@@XX.     ",
"    .XXXXoooooooooooooo@XXX.    ",
"    .XXXXoooooooooooooooXXXX.   ",
"   .XXXXXoooooooooooooooXXXX.   ",
"   .XXXXXooooooXXoooooooXXXX.   ",
"   .XXXXXoooooo&&oooooooXXXX.   ",
"   .XXXXXXXXXXX&&XXXXXXXXXXX.   ",
"   .X&&$$$$$$$$$$$$$$$$$$&&X.   ",
"   .X&XXXXXXX$$$$$$XXXXXXX&X.   ",
"   .X&==+O.==$$**$$==+..==&X.   ",
"  ..X&==...==&&**&&==...==&X..  ",
" .%%X&&=...=&&&**&&&=...=&&X%%. ",
" .%%X&&&&&&&&&&**&&&&&&&&&&X%%. ",
" .%%X&******&&***=&&******&X%%. ",
" .%%X&&*****&*****=&*****&&X%%. ",
"  ..X&&&****&&$$$$&&****&&&X%.  ",
"   .&&&&&**ooooooooooo*&&&&&.   ",
"   .&&&&&&&XXXXXXXXXXX&&&&&&.   ",
"   .&&&&&&&&&......o&&&&&&&&.   ",
"   .&&&&&&&&&&.###.&&&&&&&&&.   ",
"   .&&&&&&&&*********&&&&&&&.   ",
"    .&&&&&&&*********&&&&&&.    ",
"    .&&&&&&&&*******&&&&&&&.    ",
"     .&&&&&&&$ooooo$&&&&&&.     ",
"      .&&&&&&&ooooo&&&&&&.      ",
"       ..................       ",
"                                ",
"                                "
};
